HIERARCHY
ROOT pelvis
{
  OFFSET 0 100 0
  CHANNELS 6 Xposition Yposition Zposition Zrotation Xrotation Yrotation
  JOINT pelvis_right_femur
  {
    OFFSET -10.78128 -3.44521 -0.5502486
    CHANNELS 3 Zrotation Xrotation Yrotation
    JOINT right_femur_tibia
    {
      OFFSET -0.8047443 -44.0398 -0.1307829
      CHANNELS 3 Zrotation Xrotation Yrotation
      JOINT right_tibia_foot
      {
        OFFSET 3.006224 -47.83518 -5
        CHANNELS 3 Zrotation Xrotation Yrotation
        End Site
        {
          OFFSET 0 -5 15
        }
      }
    }
  }
  JOINT pelvis_left_femur
  {
    OFFSET 10.78128 -3.44521 -0.5502486
    CHANNELS 3 Zrotation Xrotation Yrotation
    JOINT left_femur_tibia
    {
      OFFSET 0.8047443 -44.0398 -0.1307829
      CHANNELS 3 Zrotation Xrotation Yrotation
      JOINT left_tibia_foot
      {
        OFFSET -4.370144 -48.10324 -4.275266
        CHANNELS 3 Zrotation Xrotation Yrotation
        End Site
        {
          OFFSET 0 -5 15
        }
      }
    }
  }
  JOINT pelvis_spine1
  {
    OFFSET 0 6.468898 -3.129235
    CHANNELS 3 Zrotation Xrotation Yrotation
    JOINT spine1
    {
      OFFSET 0 23.15396 4.99043
      CHANNELS 3 Zrotation Xrotation Yrotation
      JOINT spine2
      {
        OFFSET 0 20.79997 -5.064912
        CHANNELS 3 Zrotation Xrotation Yrotation
        JOINT neck
        {
          OFFSET 0 14.38658 9.616178
          CHANNELS 3 Zrotation Xrotation Yrotation
          End Site
          {
            OFFSET 0 20 0
          }
        }
      }
      JOINT right_manubrium
      {
        OFFSET -5.722621 16.35077 3.967754
        CHANNELS 3 Zrotation Xrotation Yrotation
        JOINT right_clavicle
        {
          OFFSET -13.16364 1.694482 -4.693211
          CHANNELS 3 Zrotation Xrotation Yrotation
          JOINT right_humerus
          {
            OFFSET -28.5034 -0.3100689 -2.792744
            CHANNELS 3 Zrotation Xrotation Yrotation
            JOINT right_radius
            {
              OFFSET -25.15693 0.02248979 -1.271978
              CHANNELS 3 Zrotation Xrotation Yrotation
              End Site
              {
                OFFSET -15 0 0
              }
            }
          }
        }
      }
      JOINT left_manubrium
      {
        OFFSET 5.722621 16.35077 3.967754
        CHANNELS 3 Zrotation Xrotation Yrotation
        JOINT left_clavicle
        {
          OFFSET 13.16364 1.694482 -4.693211
          CHANNELS 3 Zrotation Xrotation Yrotation
          JOINT left_humerus
          {
            OFFSET 29.39168 -1.063119 -2.237045
            CHANNELS 3 Zrotation Xrotation Yrotation
            JOINT left_radius
            {
              OFFSET 24.59957 -0.9528479 0.9047498
              CHANNELS 3 Zrotation Xrotation Yrotation
              End Site
              {
                OFFSET 15 -0 -0
              }
            }
          }
        }
      }
    }
  }
}
MOTION
Frames: 11
Frame Time: 0.0416666666667
0 103.5113 0 2.459756 -0.3327914 0.09920268 3.877463 -15.66195 12.13981 -0 36.62392 -0 -2.963099 -18.23039 -3.546209 -8.744633 9.696576 -21.95214 -0 4.492725 -0 21.43527 -9.389521 29.55343 -2.806983 -2.817051 4.924843 3.19001 10.56385 -7.960647 1.841907 20.98826 6.16783 2.479533 -25.91851 10.0399 5.738693 -19.97037 11.31488 86.8765 37.84758 -19.62233 -0 0 14.84859 -4.958183 8.324956 3.360518 5.659042 -20.42044 -1.671249 -91.37685 21.97176 20.21537 0 0 -18.80959 14.6169 13.52978 -2.398331
0.4422358 103.8499 1.579096 1.891683 0.9712235 0.1499183 4.93468 -18.57992 12.6425 -0 36.90742 -0 -3.300715 -18.25579 -3.492261 -8.704404 9.846704 -22.0775 -0 4.847517 -0 21.31105 -10.41381 30.0231 -2.899334 -2.699709 4.835473 3.325676 10.52185 -8.00601 1.783463 21.01959 6.248488 2.400907 -26.02298 10.11557 5.67072 -19.95622 11.39632 87.002 38.15987 -19.6515 -0 0 14.49027 -4.731766 8.254302 3.53993 5.477775 -20.34592 -1.793228 -90.84224 21.93648 19.73365 0 0 -19.91192 14.74257 13.02909 -2.512184
0.7573293 103.8156 3.910542 0.9271861 1.200319 0.2837868 4.974702 -23.7149 6.656232 -0 28.43146 -0 -6.101894 -12.25356 -1.593807 -7.822234 11.14859 -20.16424 -0 6.058641 -0 15.00185 -15.93651 26.21085 -2.128503 -2.063584 4.037946 2.703772 10.36149 -7.695138 1.559454 20.9568 6.706143 3.148301 -25.20463 9.579247 5.6975 -18.36826 11.4204 87.60186 36.59818 -20.29575 -0 0 12.53563 -8.849752 9.369393 5.297729 6.214703 -20.57205 -2.127935 -90.094 21.29644 18.28052 0 0 -18.00285 13.1415 12.74538 -1.149693
1.016508 103.722 6.614527 0.2705266 2.100715 0.4515126 5.640385 -27.5662 5.756203 -0 25.3331 -0 -6.720745 -9.903452 -1.255868 -7.392218 11.82483 -19.36559 -0 6.911645 -0 12.67924 -18.25346 24.82725 -2.13904 -1.985743 3.925627 2.781104 10.31277 -7.724829 1.526334 20.96962 6.756369 3.118692 -25.2672 9.61121 5.67932 -18.2689 11.4688 87.6984 36.64099 -20.40037 -0 0 12.22196 -8.8793 9.394522 5.462499 6.138524 -20.52929 -2.196565 -89.8222 21.33304 17.98425 0 0 -18.45493 13.08435 12.5322 -1.073525
1.260798 103.4021 9.79529 0.04162423 2.103778 0.6689551 5.57138 -29.6954 3.911002 -0 21.12824 -0 -7.439509 -6.927876 -0.6124583 -7.073902 12.40645 -17.97255 -0 8.011563 -0 11.42646 -19.24773 23.08643 -2.237385 -2.150619 4.00693 3.019025 10.23344 -7.842697 1.578187 21.00913 6.590947 2.878662 -25.56444 9.706298 5.745083 -18.44593 11.47814 87.4794 36.55019 -20.43123 -0 0 12.52422 -8.064046 9.298175 5.197004 5.887118 -20.38253 -2.066948 -90.33842 22.12679 18.62256 0 0 -18.38967 12.64299 12.94583 -0.4095479
1.491705 102.9075 13.50083 -0.07408323 1.917883 0.9460026 5.302472 -31.20553 2.082493 -0 17.04263 -0 -7.983831 -4.039506 -0.08066983 -6.771963 13.0755 -16.48434 -0 9.397196 -0 10.10403 -19.88841 21.2188 -2.186069 -2.021394 3.836176 3.05387 10.16977 -7.855297 1.522411 21.01603 6.671232 2.903122 -25.54919 9.677793 5.722935 -18.21386 11.5301 87.61816 36.43462 -20.59407 -0 0 12.05748 -8.448519 9.421234 5.517266 5.856547 -20.35865 -2.168898 -90.00811 22.14106 18.21899 0 0 -18.69165 12.36965 12.69277 -0.1285627
1.709724 102.2557 17.76652 -0.02691926 1.312183 1.264725 4.80304 -31.61495 0.07020691 -0 13.22879 -0 -8.497542 -1.255793 0.3874172 -6.519948 13.71604 -14.77585 -0 11.26339 -0 9.04941 -19.84186 19.34558 -2.136774 -1.912467 3.707766 3.050403 10.13436 -7.851568 1.477096 21.01443 6.746718 2.948781 -25.50187 9.645347 5.698383 -18.02827 11.5649 87.74462 36.35894 -20.71171 -0 0 11.69205 -8.818743 9.520051 5.771642 5.868292 -20.36385 -2.254974 -89.71434 22.0531 17.85694 0 0 -18.91325 12.23062 12.46411 -0.01024228
1.90713 101.5356 22.62682 0.06148818 0.4612407 1.603495 4.371853 -31.26828 -1.725669 -0 10.0049 -0 -8.908694 1.284528 0.6315978 -6.25732 14.34625 -12.96069 -0 13.88146 -0 7.965193 -19.30438 17.55467 -2.074909 -1.772178 3.586902 2.963987 10.13891 -7.803197 1.426788 21.00147 6.867903 3.066139 -25.36661 9.603232 5.652754 -17.84123 11.58839 87.92432 36.38383 -20.77765 -0 0 11.30671 -9.338796 9.605949 6.039841 5.970296 -20.42387 -2.364111 -89.28232 21.66012 17.32675 0 0 -19.17295 12.38346 12.12411 -0.2666659
2.072647 100.8491 28.083 0.1642932 -0.6906833 1.909439 4.135985 -30.04606 -3.168495 -0 7.634196 -0 -9.237083 3.454003 0.5945393 -5.972667 14.84762 -11.08765 -0 17.47719 -0 6.897894 -18.20689 16.00961 -2.00152 -1.618493 3.491117 2.781771 10.18544 -7.703616 1.381774 20.98551 7.018122 3.256256 -25.12749 9.543513 5.593446 -17.66769 11.58843 88.12295 36.47786 -20.7644 -0 0 10.96821 -9.988808 9.66778 6.28531 6.171191 -20.53891 -2.482731 -88.79789 21.00197 16.70803 0 0 -19.36419 12.79834 11.75646 -0.8649224
2.188293 100.3401 34.11149 0.2163591 -2.073652 2.112573 4.233318 -28.03606 -4.032643 -0 6.314703 -0 -9.419568 5.130795 0.1932246 -5.623798 15.12122 -9.263717 -0 22.32254 -0 5.665981 -16.60502 14.78402 -1.914287 -1.440691 3.415345 2.469246 10.27778 -7.530581 1.341581 20.98049 7.205211 3.547842 -24.72944 9.444197 5.515949 -17.49549 11.55666 88.32948 36.62224 -20.63051 -0 0 10.68402 -10.85408 9.697008 6.521953 6.496011 -20.71806 -2.627534 -88.26735 20.02862 15.9795 0 0 -19.42033 13.48595 11.38264 -1.844531
2.232018 100.1632 40.63508 0.1880006 -3.65877 2.123198 4.67735 -25.18323 -4.239783 -0 6.154554 -0 -9.439434 6.178201 -0.572839 -5.193093 14.93623 -7.597796 -0 28.59458 -0 4.222145 -14.51676 13.98772 -1.827064 -1.250256 3.370665 2.012744 10.4147 -7.268853 1.309847 21.01083 7.413152 3.948226 -24.13475 9.277946 5.421202 -17.34531 11.48482 88.4843 36.77146 -20.30416 -0 0 10.53301 -11.95299 9.669579 6.734047 6.935243 -20.95113 -2.808796 -87.78566 18.77701 15.22875 0 0 -19.19305 14.38403 11.09039 -3.158056
